<?xml version="1.0" encoding="UTF-8" standalone="no"?>
<!DOCTYPE svg PUBLIC "-//W3C//DTD SVG 1.1//EN" "http://www.w3.org/Graphics/SVG/1.1/DTD/svg11.dtd">
<svg version="1.1" xmlns="http://www.w3.org/2000/svg" xmlns:xlink="http://www.w3.org/1999/xlink" preserveAspectRatio="xMidYMid meet" viewBox="0 0 256 361" width="256" height="361"><defs><path d="M256 70.35L128.5 70.35L1 70.35L24.89 329.57L128.5 358.95L232.07 329.57L256 70.35Z" id="arBNnz4JV"></path><path d="M175.99 0.25L136.44 0.25C136.44 10.42 136.44 16.06 136.44 17.19C141.73 22.48 144.49 25.02 152.14 32.67C147.67 32.67 136.44 32.69 136.44 32.69C136.44 33.72 136.44 38.87 136.44 48.15L175.99 48.15L175.99 32.68L160.2 17.19L175.99 17.19L175.99 0.25Z" id="b1uzRsqJA"></path><path d="M128.5 91.47L128.5 336.99L212.4 313.21L232.83 91.47L128.5 91.47Z" id="b3GtzBs0DE"></path><path d="M103.69 32.11L81.01 32.11L81.01 48.4L103.69 48.4L115.83 48.4L119.94 48.4L119.94 0L103.69 0L103.69 32.11Z" id="e5N9vjQ3X5"></path><path d="M195.25 123.27L66.21 123.27L57.24 220.33L57.43 219.73L167.04 219.73L163.47 260.78L128.5 270.86L93 260.63L90.87 235.78L58.64 235.78L63.25 285.44L128.5 303.97L193.75 285.44L202.73 187.99L86.42 187.99L87.9 155.5L168.64 155.5L169.82 174.1L202.34 174.1L195.25 123.27Z" id="e1heR9ewYx"></path><path d="M128.5 270.86L128.5 303.93L63.25 285.44L58.64 235.78L90.87 235.78L93 260.63L128.5 270.86Z" id="d4noq2K3Z"></path></defs><g><g><g><use xlink:href="#arBNnz4JV" opacity="1" fill="#e6a329" fill-opacity="1"></use><g><use xlink:href="#arBNnz4JV" opacity="1" fill-opacity="0" stroke="#000000" stroke-width="1" stroke-opacity="0"></use></g></g><g><use xlink:href="#b1uzRsqJA" opacity="1" fill="#231f20" fill-opacity="1"></use><g><use xlink:href="#b1uzRsqJA" opacity="1" fill-opacity="0" stroke="#000000" stroke-width="1" stroke-opacity="0"></use></g></g><g><use xlink:href="#b3GtzBs0DE" opacity="1" fill="#f1bf22" fill-opacity="1"></use><g><use xlink:href="#b3GtzBs0DE" opacity="1" fill-opacity="0" stroke="#000000" stroke-width="1" stroke-opacity="0"></use></g></g><g><use xlink:href="#e5N9vjQ3X5" opacity="1" fill="#231f20" fill-opacity="1"></use><g><use xlink:href="#e5N9vjQ3X5" opacity="1" fill-opacity="0" stroke="#000000" stroke-width="1" stroke-opacity="0"></use></g></g><g><use xlink:href="#e1heR9ewYx" opacity="1" fill="#ffffff" fill-opacity="1"></use><g><use xlink:href="#e1heR9ewYx" opacity="1" fill-opacity="0" stroke="#000000" stroke-width="1" stroke-opacity="0"></use></g></g><g><use xlink:href="#d4noq2K3Z" opacity="1" fill="#ebebeb" fill-opacity="1"></use><g><use xlink:href="#d4noq2K3Z" opacity="1" fill-opacity="0" stroke="#000000" stroke-width="1" stroke-opacity="0"></use></g></g></g></g></svg>